inDegrees=no
num_controls=7
num_derivatives=13
num_iterations=201
num_multipliers=7
num_parameters=0
num_slacks=7
num_states=26
objective=0.545105
objective_accelerations=0.042641
objective_balance=0.003991
objective_effort=0.041511
objective_height=0.447516
objective_ligament=0.009446
solver_duration=2753.386644
status=Solve_Succeeded
success=true
DataType=double
version=3
OpenSimVersion=4.5
endheader
time	/jointset/ground_pelvis/pelvis_tilt/value	/jointset/ground_pelvis/pelvis_tx/value	/jointset/ground_pelvis/pelvis_ty/value	/jointset/hip_r/hip_flexion_r/value	/jointset/hip_r/hip_adduction_r/value	/jointset/hip_r/hip_rotation_r/value	/jointset/back/lumbar_extension/value	/jointset/patellofemoral_r/patellar_flexion_r/value	/jointset/knee_r/knee_flexion_r/value	/jointset/knee_r/knee_adduction_r/value	/jointset/knee_r/knee_rotation_r/value	/jointset/ankle_r/ankle_angle_r/value	/jointset/subtalar_r/subtalar_angle_r/value	/jointset/ground_pelvis/pelvis_tilt/speed	/jointset/ground_pelvis/pelvis_tx/speed	/jointset/ground_pelvis/pelvis_ty/speed	/jointset/hip_r/hip_flexion_r/speed	/jointset/hip_r/hip_adduction_r/speed	/jointset/hip_r/hip_rotation_r/speed	/jointset/back/lumbar_extension/speed	/jointset/patellofemoral_r/patellar_flexion_r/speed	/jointset/knee_r/knee_flexion_r/speed	/jointset/knee_r/knee_adduction_r/speed	/jointset/knee_r/knee_rotation_r/speed	/jointset/ankle_r/ankle_angle_r/speed	/jointset/subtalar_r/subtalar_angle_r/speed	/forceset/tau_hip_flexion_r	/forceset/tau_hip_adduction_r	/forceset/tau_hip_rotation_r	/forceset/tau_knee_flexion_r	/forceset/tau_ankle_angle_r	/forceset/tau_subtalar_angle_r	/forceset/tau_lumbar_extension	lambda_cid13_p0	lambda_cid14_p0	lambda_cid14_p1	lambda_cid14_p2	lambda_cid14_p3	lambda_cid14_p4	lambda_cid14_p5	/jointset/ground_pelvis/pelvis_tilt/accel	/jointset/ground_pelvis/pelvis_tx/accel	/jointset/ground_pelvis/pelvis_ty/accel	/jointset/hip_r/hip_flexion_r/accel	/jointset/hip_r/hip_adduction_r/accel	/jointset/hip_r/hip_rotation_r/accel	/jointset/back/lumbar_extension/accel	/jointset/patellofemoral_r/patellar_flexion_r/accel	/jointset/knee_r/knee_flexion_r/accel	/jointset/knee_r/knee_adduction_r/accel	/jointset/knee_r/knee_rotation_r/accel	/jointset/ankle_r/ankle_angle_r/accel	/jointset/subtalar_r/subtalar_angle_r/accel	gamma_cid13_p0	gamma_cid14_p0	gamma_cid14_p1	gamma_cid14_p2	gamma_cid14_p3	gamma_cid14_p4	gamma_cid14_p5
1.5	-0.2422044586611087	-0.0009584507994516031	0.8459896638880239	0.8974541606936227	-0.2252552572169138	-0.1424065965250842	-0.3076493092005002	0.6521126875436971	0.6521126875436921	0.03673737783030687	0.1745291010405379	0.1638421857053583	0.03520867225606613	0.5938261242069103	0.2532750455640135	0.4123313277038834	-2.04677715449468	0.01132583624370549	-0.2912627048125321	0.6936621863545156	-1.741492093891404	-1.74149209389141	0.276643212496565	2.094866795279396e-06	-0.3680674143551868	-0.07947676755620545	-0.152781062566542	-0.02687497855971704	0.007868499841996352	-0.2904476516720967	0.1118541565601131	-0.004966610711028032	0.1818881524289311	-33.97936171654877	-5.514202655784254	1.409891865073812	-4.941884157551772	-2.914707496624904	-658.0691079765335	62.46533922084156	0.3059325117086772	0.5617963680414316	-0.4532494158282131	-1.212902515586703	0.007106496795669788	-0.5080039754890697	1.698737709374329	-1.100094389074037	-1.100094389074039	0.4505681409333106	0.004451707186157594	-0.3137534866867465	-0.04235046402174366	1.30313573564442e-07	1.919107669543096e-07	-4.073969653589017e-07	1.277917868827693e-06	-6.70999428443257e-08	2.656602362070153e-07	-4.119863998718442e-07
1.51	-0.2362514478021298	0.001602083077569829	0.8500894510149136	0.8769279384307309	-0.2251425966237132	-0.1453434393204619	-0.3006290489286548	0.6346450214841276	0.6346450214841284	0.03952864628247388	0.174529404549353	0.1601460525635221	0.03441068730078167	0.5966887543320984	0.2587959713901528	0.4075379686421055	-2.058184582107508	0.01120547577142023	-0.296083732728534	0.7102892993936908	-1.751796393764671	-1.751796393764677	0.281597788856157	4.777382905283599e-05	-0.3711044869528764	-0.08010604369762142	-0.1446687595768822	-0.02807511391862002	0.007244463485392076	-0.2876616827410848	0.113630911617233	-0.005807475077535098	0.1749098130744722	-34.88771260994206	-4.748083755789682	1.257881257602018	-5.007925933239149	-3.07409002523051	-653.7586400734401	62.282890058973	0.263354913552756	0.54186414360747	-0.5055407123399525	-1.062228600463221	-0.02158533319115804	-0.4656080343507916	1.629612808084546	-0.9589173884585022	-0.9589173884583515	0.515993855909909	0.003258481690870924	-0.2904670793255007	-0.07100858915850836	1.37500871125744e-07	1.980057468264502e-07	-4.596433500417968e-07	1.319027138887742e-06	-6.498379999887834e-08	2.810440578160013e-07	-4.612158612325036e-07
1.52	-0.2302724253117724	0.004216750903594154	0.8541386722389882	0.8562961287484449	-0.2250311352380256	-0.1483277835619387	-0.2934455345850385	0.6170816485054244	0.6170816485054303	0.04236907879272443	0.1745298913459789	0.1564211921091058	0.03360685110409166	0.5990284504824389	0.2641018353645919	0.4022181471408324	-2.067894638373633	0.01108599474111372	-0.3007629940323374	0.7263130007086814	-1.760633477718155	-1.76063347771816	0.28647602411326	3.875242912300787e-05	-0.3738128768711835	-0.08064701583731677	-0.1365564565872227	-0.0292752492775231	0.006620427128786519	-0.2848757138100729	0.1154076666743529	-0.006648339444042238	0.1679314737200129	-35.76437824562485	-3.989574849929343	1.10868091469273	-5.07914864705273	-3.232579898938935	-649.5725739816783	62.18283793174934	0.2013457167391337	0.5187839977014005	-0.5585419037272583	-0.8734282462462483	0.007282385191422468	-0.4796506530493478	1.578055364537438	-0.8066512051172722	-0.8066512051172722	0.4352999204355143	-0.006488365251322333	-0.2480169508102707	-0.02468966367762187	1.452219316317228e-07	2.007048511948039e-07	-5.37498363242472e-07	1.338052804740882e-06	-5.804548866233062e-08	2.942240756396645e-07	-5.162233370357718e-07
1.53	-0.2242726142259676	0.006883386156105329	0.8581321292531863	0.8355756722568037	-0.2249209102472178	-0.1513585337950175	-0.2861048393012065	0.5994373070820433	0.5994373070820477	0.04525779094706844	0.1745303015541451	0.1526709656588712	0.03279802159749847	0.6008457889407763	0.2691873164705348	0.3963917503414393	-2.075911029852648	0.01095992116339764	-0.3053703368742898	0.7417215546076216	-1.767979553232472	-1.767979553232478	0.2912431513071352	3.875670496133271e-05	-0.3761676094156036	-0.08110029611358674	-0.1284269009654088	-0.03071426451374605	0.006020581757849598	-0.2822768354848594	0.1174723025875788	-0.007615861719507323	0.1609539990449163	-36.60479403042584	-3.155783495778815	0.915478021949247	-5.140869246267799	-3.448640473845415	-645.587787843438	62.0588258045387	0.1587515671524855	0.4977374616770043	-0.6068521986580253	-0.7228733682070536	-0.02229653420861762	-0.4485262196962001	1.506580185086733	-0.6603292551922473	-0.660329255192565	0.4938975493047283	0.002822584486369594	-0.2194681331525134	-0.05281263079552015	1.535101152664206e-07	1.997958378403841e-07	-6.425625442432883e-07	1.333614641124179e-06	-4.598362330398879e-08	3.050625519414221e-07	-5.773699531843119e-07
1.54	-0.2182572650242242	0.009599737678603231	0.862064889573268	0.8147836260964773	-0.2248118948531783	-0.1544348074805016	-0.2786131935218821	0.5817271561973986	0.5817271561974006	0.04819347005943949	0.1745306273571668	0.1488991385378136	0.03198522620390382	0.6021360736699685	0.2740450893619371	0.3900788083175381	-2.082212572110778	0.01084407538746192	-0.3098676845133626	0.7565030998071369	-1.773795369970922	-1.773795369970931	0.2958694157186584	2.18714001980216e-05	-0.378133011035809	-0.08144019323761019	-0.1202973453435953	-0.03215327974996913	0.00542073638691203	-0.2796779571596459	0.1195369385008046	-0.008583383994972609	0.1539765243698193	-37.40439486380897	-2.330386217107073	0.7250578662337631	-5.207891713657842	-3.661304726435495	-641.7396759215756	62.02170826501911	0.09593497091008102	0.4732423547932789	-0.6558509486288789	-0.5304584020691162	0.009327945547497702	-0.4576516124734074	1.452653624652508	-0.5005994499439881	-0.5005994499439879	0.4071273639651133	-0.009866281371653166	-0.1701507659673403	-0.002013033228323373	1.622295848893233e-07	1.984872466057557e-07	-7.53374266775652e-07	1.325926610312357e-06	-3.328589386055754e-08	3.153985417024207e-07	-6.384742417780621e-07
1.55	-0.2122317059046799	0.01236345038593177	0.8659321552127773	0.7939372081415755	-0.2247040370656837	-0.1575557487249555	-0.2709770064924122	0.5639664824696667	0.5639664824696647	0.05117467350432267	0.1745309304073445	0.1451095437725306	0.0311695315311469	0.602882585459712	0.2786512435064942	0.3832996523303006	-2.086773815156729	0.01072857521598822	-0.3142971841260164	0.7706136838158353	-1.778081217229938	-1.778081217229943	0.300347748849421	3.141743227517322e-05	-0.3797241459037061	-0.0816812778108318	-0.1121095488595588	-0.03375871171245926	0.004836797836277721	-0.2771979775702634	0.1216770081133596	-0.009713814589921536	0.1469391340773837	-38.15861705352779	-1.502607953144674	0.4616473179892101	-5.260242651061684	-3.810652919121037	-638.0873393728053	61.90650484940105	0.05005428396450654	0.4473681758005969	-0.7000818966488127	-0.3743505223970773	-0.02173844273995643	-0.4318341671159376	1.372167448356848	-0.3538889252853521	-0.3538889252847298	0.4645910430181364	0.005523290939604182	-0.1443073450733066	-0.03253052741194191	1.714459709768968e-07	1.967182721613216e-07	-8.708081567247981e-07	1.314494167297464e-06	-1.985553840604505e-08	3.251555795795014e-07	-6.995297616673808e-07
